<mxfile>
    <diagram id="nmkVZyxiyN1fMDuoBxMd" name="Page-1">
        <mxGraphModel dx="948" dy="1712" grid="1" gridSize="10" guides="1" tooltips="1" connect="1" arrows="1" fold="1" page="1" pageScale="1" pageWidth="827" pageHeight="1169" math="0" shadow="0">
            <root>
                <mxCell id="0"/>
                <mxCell id="1" parent="0"/>
                <mxCell id="12" value="Tomcat 线程" style="shape=umlLifeline;perimeter=lifelinePerimeter;whiteSpace=wrap;html=1;container=1;collapsible=0;recursiveResize=0;outlineConnect=0;" vertex="1" parent="1">
                    <mxGeometry x="364" y="40" width="100" height="740" as="geometry"/>
                </mxCell>
                <mxCell id="16" value="" style="html=1;points=[];perimeter=orthogonalPerimeter;" vertex="1" parent="12">
                    <mxGeometry x="46" y="110" width="10" height="630" as="geometry"/>
                </mxCell>
                <mxCell id="24" value="" style="html=1;points=[];perimeter=orthogonalPerimeter;" vertex="1" parent="12">
                    <mxGeometry x="50" y="140" width="10" height="350" as="geometry"/>
                </mxCell>
                <mxCell id="25" value="调用业务代码" style="edgeStyle=orthogonalEdgeStyle;html=1;align=left;spacingLeft=2;endArrow=block;rounded=0;entryX=1;entryY=0;" edge="1" target="24" parent="12">
                    <mxGeometry relative="1" as="geometry">
                        <mxPoint x="55" y="120" as="sourcePoint"/>
                        <Array as="points">
                            <mxPoint x="80" y="120"/>
                        </Array>
                    </mxGeometry>
                </mxCell>
                <mxCell id="13" value="A服务" style="shape=umlLifeline;perimeter=lifelinePerimeter;whiteSpace=wrap;html=1;container=1;collapsible=0;recursiveResize=0;outlineConnect=0;" vertex="1" parent="1">
                    <mxGeometry x="80" y="40" width="100" height="1120" as="geometry"/>
                </mxCell>
                <mxCell id="17" value="Http Request" style="html=1;verticalAlign=bottom;endArrow=block;entryX=0;entryY=0;" edge="1" target="16" parent="1" source="13">
                    <mxGeometry relative="1" as="geometry">
                        <mxPoint x="340" y="150" as="sourcePoint"/>
                    </mxGeometry>
                </mxCell>
                <mxCell id="18" value="Http Response" style="html=1;verticalAlign=bottom;endArrow=open;dashed=1;endSize=8;exitX=0;exitY=0.95;" edge="1" source="16" parent="1" target="13">
                    <mxGeometry relative="1" as="geometry">
                        <mxPoint x="340" y="226" as="targetPoint"/>
                    </mxGeometry>
                </mxCell>
                <mxCell id="28" value="线程池" style="shape=umlLifeline;perimeter=lifelinePerimeter;whiteSpace=wrap;html=1;container=1;collapsible=0;recursiveResize=0;outlineConnect=0;" vertex="1" parent="1">
                    <mxGeometry x="650" y="40" width="120" height="1310" as="geometry"/>
                </mxCell>
                <mxCell id="29" value="" style="html=1;points=[];perimeter=orthogonalPerimeter;" vertex="1" parent="28">
                    <mxGeometry x="55" y="170" width="10" height="90" as="geometry"/>
                </mxCell>
                <mxCell id="46" value="" style="html=1;points=[];perimeter=orthogonalPerimeter;" vertex="1" parent="28">
                    <mxGeometry x="55" y="280" width="10" height="80" as="geometry"/>
                </mxCell>
                <mxCell id="57" value="" style="html=1;points=[];perimeter=orthogonalPerimeter;" vertex="1" parent="28">
                    <mxGeometry x="55" y="420" width="10" height="40" as="geometry"/>
                </mxCell>
                <mxCell id="58" value="submit(Callable c)" style="edgeStyle=orthogonalEdgeStyle;html=1;align=left;spacingLeft=2;endArrow=block;rounded=0;entryX=1;entryY=0;exitX=0.867;exitY=0.107;exitDx=0;exitDy=0;exitPerimeter=0;" edge="1" target="57" parent="28" source="29">
                    <mxGeometry relative="1" as="geometry">
                        <mxPoint x="70" y="180" as="sourcePoint"/>
                        <Array as="points">
                            <mxPoint x="210" y="180"/>
                            <mxPoint x="210" y="420"/>
                        </Array>
                    </mxGeometry>
                </mxCell>
                <mxCell id="30" value="execute(Callable c)" style="html=1;verticalAlign=bottom;startArrow=oval;endArrow=block;startSize=8;exitX=1.3;exitY=0.089;exitDx=0;exitDy=0;exitPerimeter=0;" edge="1" target="29" parent="1" source="24">
                    <mxGeometry x="-0.0432" relative="1" as="geometry">
                        <mxPoint x="635" y="210" as="sourcePoint"/>
                        <mxPoint as="offset"/>
                    </mxGeometry>
                </mxCell>
                <mxCell id="34" value="CallerRuns&lt;br&gt;max = 10&lt;br&gt;queueSize = 10" style="text;html=1;strokeColor=none;fillColor=none;align=center;verticalAlign=middle;whiteSpace=wrap;rounded=0;" vertex="1" parent="1">
                    <mxGeometry x="650" y="-20" width="120" height="50" as="geometry"/>
                </mxCell>
                <mxCell id="36" value="threadCount = 9&lt;br&gt;queueSize = 10" style="text;html=1;strokeColor=none;fillColor=none;align=center;verticalAlign=middle;whiteSpace=wrap;rounded=0;" vertex="1" parent="1">
                    <mxGeometry x="730" y="110" width="120" height="50" as="geometry"/>
                </mxCell>
                <mxCell id="37" value="threadCount = 10&lt;br&gt;queueSize = 10" style="text;html=1;strokeColor=none;fillColor=none;align=center;verticalAlign=middle;whiteSpace=wrap;rounded=0;" vertex="1" parent="1">
                    <mxGeometry x="870" y="200" width="120" height="50" as="geometry"/>
                </mxCell>
                <mxCell id="47" value="execute(Callable c)" style="html=1;verticalAlign=bottom;startArrow=oval;endArrow=block;startSize=8;exitX=1.133;exitY=0.399;exitDx=0;exitDy=0;exitPerimeter=0;" edge="1" target="46" parent="1" source="24">
                    <mxGeometry relative="1" as="geometry">
                        <mxPoint x="645" y="320" as="sourcePoint"/>
                    </mxGeometry>
                </mxCell>
                <mxCell id="48" value="return future1" style="html=1;verticalAlign=bottom;endArrow=open;dashed=1;endSize=8;exitX=-0.05;exitY=0.983;exitDx=0;exitDy=0;exitPerimeter=0;entryX=1.217;entryY=0.337;entryDx=0;entryDy=0;entryPerimeter=0;" edge="1" parent="1" source="29" target="24">
                    <mxGeometry relative="1" as="geometry">
                        <mxPoint x="660" y="260" as="sourcePoint"/>
                        <mxPoint x="580" y="260" as="targetPoint"/>
                    </mxGeometry>
                </mxCell>
                <mxCell id="49" value="return future2" style="html=1;verticalAlign=bottom;endArrow=open;dashed=1;endSize=8;exitX=0.117;exitY=0.996;exitDx=0;exitDy=0;exitPerimeter=0;entryX=0.967;entryY=0.625;entryDx=0;entryDy=0;entryPerimeter=0;" edge="1" parent="1" source="46" target="24">
                    <mxGeometry relative="1" as="geometry">
                        <mxPoint x="700" y="390" as="sourcePoint"/>
                        <mxPoint x="620" y="390" as="targetPoint"/>
                    </mxGeometry>
                </mxCell>
                <mxCell id="50" value="threadCount = 10&lt;br&gt;queueSize = 10" style="text;html=1;strokeColor=none;fillColor=none;align=center;verticalAlign=middle;whiteSpace=wrap;rounded=0;" vertex="1" parent="1">
                    <mxGeometry x="730" y="340" width="120" height="50" as="geometry"/>
                </mxCell>
            </root>
        </mxGraphModel>
    </diagram>
</mxfile>